<svg width="82" height="82" viewBox="0 0 82 82" fill="none" xmlns="http://www.w3.org/2000/svg">
<rect x="0.427083" y="0.427083" width="81.1458" height="81.1458" fill="#FDFAFA" stroke="#E5E5E5" stroke-width="0.854167"/>
<path d="M19.0275 27.7187V22.5917H39.5353V65.2676H19.0275V27.7187Z" fill="#ED7C0E"/>
<path d="M57.8456 59.4082H42.4647V16.7324H62.9725V59.4082H57.8456Z" fill="#ED7C0E"/>
<path d="M19.0275 27.7187V22.5917H39.5353V65.2676H19.0275V27.7187Z" stroke="white" stroke-width="1.40625" stroke-miterlimit="22.9256"/>
<path d="M57.8456 59.4082H42.4647V16.7324H62.9725V59.4082H57.8456Z" stroke="white" stroke-width="1.40625" stroke-miterlimit="22.9256"/>
<path d="M56.0265 16.7324C56.0265 22.5917 56.0265 29.6771 62.9725 34.384" stroke="white" stroke-width="1.40625" stroke-miterlimit="22.9256"/>
<path d="M52.3644 16.7324C52.3644 25.0107 53.0609 36.9963 62.9725 42.1965M47.2375 16.7324C47.1442 41 51.6977 51.8352 62.9724 59.4082M42.4646 46.05C42.4646 50.6791 44.8541 56.7949 48.9464 59.4082M34.5075 22.5917C34.7809 33.078 33.6363 38.5938 32.6724 43.2181C30.605 53.137 39.0086 48.1974 39.5352 43.9297" stroke="white" stroke-width="1.40625" stroke-miterlimit="22.9256"/>
<path d="M29.5616 22.5918C30.0011 30.3705 29.3923 34.1066 26.7775 42.9924C23.081 55.5536 30.1081 65.2676 39.5353 56.1447M24.4835 22.5918C24.8595 29.4646 24.5151 38.7905 19.0275 42.7798M19.0275 51.9094C19.0275 56.5385 21.4169 62.6543 25.5092 65.2676" stroke="white" stroke-width="1.40625" stroke-miterlimit="22.9256"/>
</svg>
