<svg width="49" height="49" viewBox="0 0 49 49" fill="none" xmlns="http://www.w3.org/2000/svg">
<path d="M6.125 24.5C6.125 26.913 6.60028 29.3025 7.52371 31.5318C8.44714 33.7612 9.80064 35.7868 11.5069 37.4931C13.2132 39.1994 15.2388 40.5529 17.4682 41.4763C19.6976 42.3997 22.087 42.875 24.5 42.875C26.913 42.875 29.3025 42.3997 31.5318 41.4763C33.7612 40.5529 35.7868 39.1994 37.4931 37.4931C39.1994 35.7868 40.5529 33.7612 41.4763 31.5318C42.3997 29.3025 42.875 26.913 42.875 24.5C42.875 19.6266 40.9391 14.9529 37.4931 11.5069C34.0471 8.06093 29.3734 6.125 24.5 6.125C19.6266 6.125 14.9529 8.06093 11.5069 11.5069C8.06093 14.9529 6.125 19.6266 6.125 24.5Z" stroke="#ED7C0E" stroke-width="4" stroke-linecap="round" stroke-linejoin="round"/>
<path d="M24.5 14.2915V24.4998L30.625 30.6248" stroke="#ED7C0E" stroke-width="4" stroke-linecap="round" stroke-linejoin="round"/>
</svg>
