<svg width="82" height="82" viewBox="0 0 82 82" fill="none" xmlns="http://www.w3.org/2000/svg">
<rect x="0.427083" y="0.427083" width="81.1458" height="81.1458" fill="#FDFAFA" stroke="#E5E5E5" stroke-width="0.854167"/>
<g clip-path="url(#clip0_23_76)">
<path d="M36.8554 62.354H48.583L63.2083 47.7287V36.0011L36.8554 62.354ZM26.0448 27.0178L19.6458 33.4168V45.1444L31.9087 32.8817L26.0448 27.0178ZM41.4271 42.4001L21.4731 62.354H33.2007L47.2909 48.2638L41.4271 42.4001ZM56.8093 57.7823L52.2375 62.354H61.381L56.8093 57.7823ZM58.6366 55.955L63.2083 60.5267V51.3832L58.6366 55.955ZM34.2712 18.7915L27.8721 25.1905L33.736 31.0543L45.9987 18.7915H34.2712ZM19.6458 51.3832V60.5267L24.2175 55.955L19.6458 51.3832ZM43.2544 40.5728L49.1181 46.4366L63.2083 32.3464V20.6188L43.2544 40.5728ZM19.6458 18.7915V29.7623L30.6166 18.7915H19.6458ZM52.2375 18.7915L56.8093 23.3632L61.381 18.7915H52.2375ZM20.1805 48.2632L49.1172 19.3265L54.981 25.1902L26.0442 54.1269L20.1805 48.2632Z" fill="#ED7C0E"/>
</g>
<defs>
<clipPath id="clip0_23_76">
<rect width="43.5625" height="43.5625" fill="white" transform="translate(19.6458 18.7915)"/>
</clipPath>
</defs>
</svg>
