<svg width="82" height="82" viewBox="0 0 82 82" fill="none" xmlns="http://www.w3.org/2000/svg">
<rect x="0.427083" y="0.427083" width="81.1458" height="81.1458" fill="#FDFAFA" stroke="#E5E5E5" stroke-width="0.854167"/>
<path d="M19.5312 60.3828V29.7162C22.1356 29.8297 24.1259 30.0687 25.9222 30.4803C30.3303 31.4909 33.9116 33.965 37.2022 36.4137C37.7122 36.7934 38.2287 37.1825 38.7275 37.5603C42.2891 40.2491 45.9725 43.0288 50.3422 44.3131C52.6653 44.9956 55.1384 45.3463 58.2959 45.4363V60.3828H19.5312Z" fill="#ED7C0E"/>
<path d="M41.6928 34.6475H45.0003V40.6203C43.8809 39.9303 42.7869 39.1691 41.6928 38.3694V34.6475Z" fill="#ED7C0E"/>
<path d="M46.1253 30.3041H49.4328V37.8659H46.1253V30.3041Z" fill="#ED7C0E"/>
<path d="M46.1253 38.9909H49.4328V42.8253C48.2863 42.4025 47.1903 41.8794 46.1253 41.2831V38.9909Z" fill="#ED7C0E"/>
<path d="M53.8644 42.2094H50.5569V34.6475H53.8644V38.4284V42.2094Z" fill="#ED7C0E"/>
<path d="M54.9894 38.9909H58.2969V44.3103C57.1016 44.2756 56.0094 44.2016 54.9894 44.0863V38.9909Z" fill="#ED7C0E"/>
<path d="M58.2969 37.8659H54.9894V30.3041H58.2969V37.8659Z" fill="#ED7C0E"/>
<path d="M58.2969 29.1791H54.9894V21.6172H58.2969V29.1791Z" fill="#ED7C0E"/>
<path d="M62.4688 60.3828H59.4219V21.6172H62.4688V60.3828Z" fill="#ED7C0E"/>
<path d="M53.8644 24.8356H50.5569V21.6172H53.8644V24.8356Z" fill="#ED7C0E"/>
<path d="M49.4319 29.1791H46.1244V21.6172H49.4319V29.1791Z" fill="#ED7C0E"/>
<path d="M45.0003 24.8356H41.6928V21.6172H45.0003V24.8356Z" fill="#ED7C0E"/>
<path d="M41.6928 29.7416V25.9606H45.0003V33.5225H41.6928V29.7416Z" fill="#ED7C0E"/>
<path d="M37.2603 30.3041H40.5678V37.5359C40.1816 37.2472 39.7953 36.9547 39.4053 36.6613C38.9047 36.2834 38.3862 35.8925 37.8734 35.51C37.6719 35.36 37.4675 35.2081 37.2603 35.0563V30.3041Z" fill="#ED7C0E"/>
<path d="M37.2603 21.6172H40.5678V29.1791H37.2603V21.6172Z" fill="#ED7C0E"/>
<path d="M32.8278 29.7416V25.9606H36.1353V34.2463C35.0919 33.5094 33.9912 32.7791 32.8278 32.105V29.7416Z" fill="#ED7C0E"/>
<path d="M36.1353 24.8356H32.8278V21.6172H36.1353V24.8356Z" fill="#ED7C0E"/>
<path d="M31.7028 29.1791H28.3953V21.6172H31.7028V29.1791Z" fill="#ED7C0E"/>
<path d="M27.2712 24.8356H23.9637V21.6172H27.2712V24.8356Z" fill="#ED7C0E"/>
<path d="M23.9637 25.9606H27.2712V29.6703C26.9103 29.5653 26.5447 29.4688 26.1734 29.3844C25.4712 29.2231 24.7419 29.0881 23.9637 28.9756V25.9606Z" fill="#ED7C0E"/>
<path d="M22.8387 21.6172V28.8322C21.8375 28.7216 20.75 28.6419 19.5312 28.5894V21.6172H22.8387Z" fill="#ED7C0E"/>
<path d="M50.5569 25.9606H53.8644V33.5225H50.5569V29.7416V25.9606Z" fill="#ED7C0E"/>
</svg>
