<svg width="82" height="82" viewBox="0 0 82 82" fill="none" xmlns="http://www.w3.org/2000/svg">
<rect x="0.427083" y="0.427083" width="81.1458" height="81.1458" fill="#FDFAFA" stroke="#E5E5E5" stroke-width="0.854167"/>
<g clip-path="url(#clip0_118_6)">
<path d="M51.5432 38.024L55.1732 41.6532C55.1739 41.6539 55.1739 41.6547 55.1747 41.6554L62.9999 49.4806V43.2576L54.6547 34.9124L51.5432 38.024ZM36.5058 60.3206L27.6906 51.5061L24.5792 54.6168L28.2092 58.2468L31.7108 61.7477L32.9626 62.9995H39.1856L36.5068 60.3214C36.5066 60.3214 36.5058 60.3214 36.5058 60.3206ZM41.1723 29.7269L49.9729 20.9263C49.9773 20.9211 49.9788 20.9146 49.9839 20.9094C49.9898 20.9036 49.9971 20.9021 50.003 20.8969L51.8993 19.0006H45.6763L38.0607 26.6154L41.1723 29.7269ZM40.1351 39.0605L36.5052 35.4305L27.6907 26.616L24.5792 29.7268L28.2092 33.3567L37.0244 42.172L40.1351 39.0605ZM25.9596 61.5331H29.4216L27.691 59.8024L25.9596 61.5331ZM55.3338 19.0003H53.9735L51.5433 21.4306L55.1733 25.0606C55.1747 25.0621 55.1747 25.0635 55.1762 25.0649L63.0001 32.8888V26.6658L55.3338 19.0003ZM28.2092 41.6532L37.0244 50.4684L40.1359 47.3569L36.5052 43.7269L27.6907 34.9124L24.5792 38.024L28.2092 41.6532ZM51.5423 54.6159L55.173 58.2466L59.9264 63H62.2664C62.3627 63 62.458 62.9811 62.547 62.9442C62.636 62.9074 62.7168 62.8534 62.7849 62.7853C62.853 62.7172 62.9071 62.6364 62.9439 62.5474C62.9807 62.4584 62.9997 62.363 62.9996 62.2667V59.8505L54.6478 51.4986L51.5423 54.6159ZM23.5422 55.6537L19 60.1952V62.2661C19 62.3624 19.0189 62.4578 19.0557 62.5468C19.0926 62.6357 19.1466 62.7166 19.2147 62.7847C19.2828 62.8528 19.3636 62.9068 19.4526 62.9436C19.5416 62.9805 19.637 62.9994 19.7333 62.9994H22.4194L23.6712 61.7476L26.6537 58.7652L23.5422 55.6537ZM19.0004 43.6027V49.8249L23.0234 45.8019L26.6534 42.172L23.5419 39.0605L19.0004 43.6027ZM26.6537 50.4687L23.5422 47.3573L19.0007 51.8995V58.1217L23.0238 54.098L26.6537 50.4687ZM40.1353 30.764L36.5053 27.134C36.4562 27.0849 36.4262 27.0247 36.3938 26.9661C36.3337 26.9331 36.2728 26.9015 36.2237 26.8524L28.3713 19H22.1498L37.0238 33.8754L40.1353 30.764ZM20.0758 19.0003H19.7341C19.6377 19.0003 19.5424 19.0192 19.4533 19.056C19.3643 19.0928 19.2835 19.1468 19.2154 19.2149C19.1472 19.283 19.0932 19.3639 19.0564 19.4529C19.0196 19.5419 19.0007 19.6373 19.0008 19.7336V24.9351L22.5053 21.4298L20.0758 19.0003ZM26.6537 25.5788L23.5422 22.4673L19.0007 27.0087V33.2317L23.0238 29.208L26.6537 25.5788ZM26.6537 33.8752L23.5422 30.7637L19 35.3052V41.5289L23.0238 37.5052L26.6537 33.8752ZM55.1661 49.9423L62.9995 57.7764V51.5542L54.6543 43.209L51.5428 46.3205L55.164 49.9409C55.1647 49.9416 55.1654 49.9416 55.1661 49.9423ZM51.4573 62.9994H57.8519L54.6546 59.8021L51.4573 62.9994ZM37.0244 58.7648L40.1359 55.6534L36.5052 52.0242L27.6899 43.2088L24.5792 46.3204L28.2092 49.9503L37.0244 58.7648ZM62.9997 19.7337C62.9998 19.6374 62.9809 19.542 62.9441 19.453C62.9073 19.364 62.8533 19.2831 62.7852 19.215C62.7171 19.1469 62.6362 19.0929 62.5472 19.0561C62.4582 19.0192 62.3628 19.0003 62.2664 19.0004H57.4081L62.9997 24.592V19.7337ZM55.1729 33.3564L62.9997 41.1831V34.9624L54.6538 26.6164L51.543 29.7272L55.1657 33.3498L55.1729 33.3564ZM53.6109 50.462L50.506 47.3571L41.6907 56.1724L38.0615 59.8016L41.1723 62.9131L49.9868 54.0985L53.6109 50.462ZM50.506 55.6536L43.1596 63H49.3833L53.6175 58.7651L50.506 55.6536ZM43.6027 19.0002H30.4454L37.024 25.5788L43.6027 19.0002ZM41.6907 47.876L38.0615 51.5052L41.1723 54.6166L53.6175 42.1722L50.506 39.0607L41.6907 47.876ZM50.5064 30.764L41.6911 39.5792L38.0612 43.2084L41.1726 46.32L49.9872 37.5061L53.6113 33.8688L50.5064 30.764ZM41.6911 31.2828L38.0611 34.912L41.1719 38.0234L49.9872 29.2081C49.9879 29.2074 49.9893 29.2074 49.9893 29.2066L53.6171 25.5797L50.5057 22.4683L41.6911 31.2828Z" fill="#ED7C0E"/>
</g>
<defs>
<clipPath id="clip0_118_6">
<rect width="44" height="44" fill="white" transform="translate(19 19)"/>
</clipPath>
</defs>
</svg>
