<svg width="82" height="82" viewBox="0 0 82 82" fill="none" xmlns="http://www.w3.org/2000/svg">
<rect x="0.427083" y="0.427083" width="81.1458" height="81.1458" fill="#FDFAFA" stroke="#E5E5E5" stroke-width="0.854167"/>
<g clip-path="url(#clip0_23_100)">
<path d="M24.1334 38.7998H34.4V41.7331H24.1334V38.7998ZM24.1334 50.5331H34.4V53.4665H24.1334V50.5331ZM47.6 38.7998H57.8667V41.7331H47.6V38.7998ZM47.6 50.5331H57.8667V53.4665H47.6V50.5331Z" fill="#ED7C0E"/>
<path d="M39.5333 21.9331H42.4667V43.9331H39.5333V21.9331Z" fill="#ED7C0E"/>
<path d="M34.4 42.4668H47.6V45.4001H34.4V42.4668Z" fill="#ED7C0E"/>
<path d="M32.9334 29.4595V59.3333H35.8667V26.48L32.9334 29.4595ZM46.1334 26.48V59.3333H49.0667V29.4595L46.1334 26.48ZM56.4 35.9766V59.3333H59.3334V39.0801L56.4 35.9766ZM25.6 35.9766V59.3333H22.6667V39.0801L25.6 35.9766Z" fill="#ED7C0E"/>
<path d="M60.0315 40.8047L41 23.1959L21.9685 40.8047C21.8255 40.9368 21.636 41.007 21.4415 40.9998C21.2469 40.9927 21.0631 40.9088 20.9301 40.7666L19.9299 39.6937C19.8642 39.6234 19.8131 39.5408 19.7795 39.4506C19.7458 39.3605 19.7304 39.2646 19.7339 39.1685C19.7374 39.0723 19.7599 38.9778 19.8001 38.8904C19.8403 38.8029 19.8973 38.7243 19.968 38.659L39.9997 20.1247C40.2721 19.8731 40.6292 19.7334 41 19.7334C41.3708 19.7334 41.7279 19.8731 42.0003 20.1247L62.032 38.6583C62.1026 38.7236 62.1597 38.8022 62.1999 38.8896C62.24 38.9771 62.2626 39.0716 62.2661 39.1677C62.2696 39.2639 62.2542 39.3598 62.2205 39.4499C62.1869 39.5401 62.1358 39.6227 62.0701 39.693L61.0699 40.7659C60.9369 40.9081 60.7531 40.9919 60.5585 40.9991C60.364 41.0062 60.1745 40.9368 60.0315 40.8047Z" fill="#ED7C0E"/>
<path d="M61.5333 57.8667H20.4667C20.0617 57.8667 19.7333 58.195 19.7333 58.6V61.5334C19.7333 61.9384 20.0617 62.2667 20.4667 62.2667H61.5333C61.9383 62.2667 62.2667 61.9384 62.2667 61.5334V58.6C62.2667 58.195 61.9383 57.8667 61.5333 57.8667Z" fill="#ED7C0E"/>
</g>
<defs>
<clipPath id="clip0_23_100">
<rect width="44" height="44" fill="white" transform="translate(19 19)"/>
</clipPath>
</defs>
</svg>
