<svg width="82" height="82" viewBox="0 0 82 82" fill="none" xmlns="http://www.w3.org/2000/svg">
<rect x="0.427083" y="0.427083" width="81.1458" height="81.1458" fill="#FDFAFA" stroke="#E5E5E5" stroke-width="0.854167"/>
<g clip-path="url(#clip0_23_49)">
<g clip-path="url(#clip1_23_49)">
<path d="M61.6035 38.32L42.0251 19.417C41.4548 18.861 40.5451 18.861 39.9748 19.417L20.3971 38.3192C20.2545 38.4569 20.1411 38.6219 20.0636 38.8044C19.9861 38.9869 19.9462 39.1831 19.9462 39.3813C19.9462 40.1966 20.6071 40.8575 21.4223 40.8575H24.0241V61.5238C24.0241 62.3391 24.6849 63 25.5002 63H35.8334C36.6487 63 37.3095 62.3391 37.3095 61.5238V49.7145H44.6904V61.5238C44.6904 62.3391 45.3512 63 46.1665 63H56.4997C57.315 63 57.9758 62.3391 57.9758 61.5238V40.8575H60.5776C60.9778 40.8575 61.3608 40.695 61.6389 40.4073C62.2055 39.8211 62.1896 38.8866 61.6035 38.32ZM57.9758 39.3813C57.1605 39.3813 56.4997 40.0422 56.4997 40.8575V61.5238H46.1665V49.7145C46.1665 48.8992 45.5057 48.2383 44.6904 48.2383H37.3095C36.4942 48.2383 35.8334 48.8992 35.8334 49.7145V61.5238H25.5002V40.8575C25.5002 40.0422 24.8394 39.3813 24.0241 39.3813H21.4223L40.9999 20.4791L60.5849 39.3813H57.9758Z" fill="#ED7C0E"/>
<path d="M57.9758 39.3813C57.1605 39.3813 56.4997 40.0422 56.4997 40.8575V61.5238H46.1665V49.7145C46.1665 48.8992 45.5057 48.2383 44.6904 48.2383H37.3095C36.4942 48.2383 35.8334 48.8992 35.8334 49.7145V61.5238H25.5002V40.8575C25.5002 40.0422 24.8394 39.3813 24.0241 39.3813H21.4223L40.9999 20.4791L60.5849 39.3813H57.9758Z" fill="#ED7C0E"/>
</g>
</g>
<defs>
<clipPath id="clip0_23_49">
<rect width="44" height="44" fill="white" transform="translate(19 19)"/>
</clipPath>
<clipPath id="clip1_23_49">
<rect width="44" height="44" fill="white" transform="translate(19 19)"/>
</clipPath>
</defs>
</svg>
