<svg width="49" height="49" viewBox="0 0 49 49" fill="none" xmlns="http://www.w3.org/2000/svg">
<path d="M8.16671 40.8332C7.04379 40.8332 6.08285 40.4337 5.28387 39.6347C4.4849 38.8357 4.08474 37.8741 4.08337 36.7498V12.2498C4.08337 11.1269 4.48354 10.166 5.28387 9.367C6.08421 8.56803 7.04515 8.16787 8.16671 8.1665H40.8334C41.9563 8.1665 42.9179 8.56667 43.7182 9.367C44.5186 10.1673 44.9181 11.1283 44.9167 12.2498V36.7498C44.9167 37.8728 44.5172 38.8344 43.7182 39.6347C42.9193 40.435 41.9576 40.8345 40.8334 40.8332H8.16671ZM40.8334 16.3332L25.5719 25.878C25.4018 25.98 25.2235 26.0569 25.037 26.1087C24.8505 26.1604 24.6715 26.1856 24.5 26.1842C24.3285 26.1829 24.1502 26.1577 23.9651 26.1087C23.78 26.0597 23.601 25.9828 23.4282 25.878L8.16671 16.3332V36.7498H40.8334V16.3332ZM24.5 22.4582L40.8334 12.2498H8.16671L24.5 22.4582ZM8.16671 16.8436V13.8321V13.8832V13.8587V16.8436Z" fill="#ED7C0E"/>
</svg>
