<svg width="82" height="82" viewBox="0 0 82 82" fill="none" xmlns="http://www.w3.org/2000/svg">
<rect x="0.427083" y="0.427083" width="81.1458" height="81.1458" fill="#FDFAFA" stroke="#E5E5E5" stroke-width="0.854167"/>
<g clip-path="url(#clip0_23_100)">
<path d="M45.5578 49.0339L45.5518 47.3797L47.38 45.548L49.0361 45.5525L45.5578 49.0339ZM19.8762 43.7034L21.6021 45.4296L20.6159 46.089L19.22 44.6928L19.8762 43.7034ZM34.1725 55.4123C34.1725 55.8148 34.0126 56.2008 33.7281 56.4854C33.4435 56.77 33.0576 56.9298 32.6552 56.9298C32.2528 56.9298 31.8669 56.77 31.5824 56.4854C31.2978 56.2008 31.138 55.8148 31.138 55.4123C31.138 54.6073 30.8183 53.8353 30.2492 53.2661C29.6801 52.6969 28.9083 52.3771 28.1035 52.3771C27.2987 52.3771 26.5269 52.6969 25.9578 53.2661C25.3887 53.8353 25.069 54.6073 25.069 55.4123V61.1032C25.069 61.6063 24.8692 62.0888 24.5135 62.4446C24.1578 62.8003 23.6754 63.0002 23.1725 63.0002C22.6695 63.0002 22.1871 62.8003 21.8314 62.4446C21.4757 62.0888 21.2759 61.6063 21.2759 61.1032V47.4715L22.696 46.5238L23.2377 47.0656C23.7234 47.5514 24.3821 47.8243 25.069 47.8243C25.7559 47.8243 26.4146 47.5514 26.9003 47.0656L34.1725 39.7918V55.4123ZM45.5518 25.8194C45.5505 26.1037 45.4377 26.3762 45.2377 26.5782L25.8276 45.9926C25.6218 46.1849 25.3507 46.2919 25.069 46.2919C24.7874 46.2919 24.5162 46.1849 24.3104 45.9926L19.3141 40.9952C19.1131 40.7939 19.0001 40.521 19.0001 40.2365C19.0001 39.9519 19.1131 39.679 19.3141 39.4777L38.7242 20.0632C38.9255 19.8621 39.1983 19.7492 39.4828 19.7492C39.7673 19.7492 40.0401 19.8621 40.2414 20.0632L45.2377 25.0606C45.4377 25.2626 45.5505 25.5351 45.5518 25.8194ZM43.1765 37.6004L51.6329 28.3993C52.1147 27.9158 52.3852 27.2609 52.3852 26.5782C52.3852 25.8955 52.1147 25.2407 51.6329 24.7571L48.1432 21.2667C47.649 20.7936 46.9914 20.5296 46.3073 20.5296C45.6233 20.5296 44.9657 20.7936 44.4715 21.2667L44.0315 21.7068L42.8313 20.5079L42.9489 20.3903C43.8412 19.5 45.0501 19 46.3104 19C47.5707 19 48.7796 19.5 49.6718 20.3903L52.5174 23.2395C52.958 23.6804 53.3071 24.2041 53.5446 24.7804C53.7821 25.3568 53.9033 25.9744 53.9011 26.5978C53.899 27.2211 53.7737 27.8379 53.5323 28.4126C53.2909 28.9873 52.9383 29.5086 52.4947 29.9465L44.0345 39.1483C43.5453 39.6378 43.2705 40.3016 43.2705 40.9937C43.2705 41.6858 43.5453 42.3496 44.0345 42.8391L45.994 44.7892L44.7931 45.9942L43.1545 44.3643C42.7117 43.9189 42.3609 43.3905 42.1223 42.8094C41.8837 42.2284 41.7619 41.606 41.764 40.9778C41.766 40.3496 41.8918 39.728 42.1342 39.1485C42.3766 38.569 42.7308 38.0429 43.1765 37.6004ZM45.8772 50.8595L50.8674 45.8682L51.6571 46.6581C51.6916 46.8767 51.7578 47.0891 51.8536 47.2887L47.3019 51.8414C47.1 51.7438 46.8847 51.6765 46.6631 51.6418L45.8772 50.8595ZM54.9951 59.9901L48.5718 53.5563C48.5372 53.3346 48.4699 53.1193 48.3723 52.9174L52.924 48.3646C53.1281 48.4643 53.346 48.5328 53.5704 48.568L59.9929 55.0018C60.0276 55.2204 60.0941 55.4328 60.1901 55.6323L55.6384 60.1851C55.4348 60.0886 55.218 60.0228 54.9951 59.9901ZM63 58.9027L61.0276 60.8756C60.9984 60.8973 60.9707 60.9212 60.9449 60.9469L58.8929 63.0002H58.0038L56.906 61.9014C56.8711 61.68 56.8036 61.465 56.7058 61.2633L61.2575 56.7106C61.4613 56.8102 61.6789 56.8787 61.9031 56.9139L63 58.0142V58.9027Z" fill="#ED7C0E"/>
</g>
<defs>
<clipPath id="clip0_23_100">
<rect width="44" height="44" fill="white" transform="translate(19 19)"/>
</clipPath>
</defs>
</svg>
