<svg width="49" height="49" viewBox="0 0 49 49" fill="none" xmlns="http://www.w3.org/2000/svg">
<path d="M9.87815 18.9421C8.50373 15.2958 10.4399 11.3453 14.2346 9.24108C14.9083 8.869 15.6983 8.76704 16.4444 8.95589C17.1904 9.14474 17.8368 9.61026 18.2523 10.258L20.2951 13.4552C20.6239 13.9695 20.7915 14.5704 20.7764 15.1806C20.7612 15.7908 20.5641 16.3826 20.2102 16.88L17.09 21.2548C16.936 21.4706 16.8407 21.7228 16.8134 21.9866C16.7862 22.2504 16.8279 22.5167 16.9345 22.7595L17.0036 22.9076L17.1793 23.2773C18.0653 25.066 19.1869 26.728 20.5141 28.2189C21.9524 29.7958 23.6091 31.1586 25.4338 32.2658L25.5765 32.3482C25.8066 32.4787 26.0666 32.5474 26.3311 32.5476C26.5957 32.5478 26.8557 32.4795 27.086 32.3493L31.7611 29.7037C32.2926 29.4037 32.9015 29.2692 33.5099 29.3176C34.1183 29.3661 34.6983 29.5952 35.1756 29.9755L38.1608 32.349C39.4044 33.3366 39.6596 35.1234 38.7495 36.4225C36.26 39.9804 32.1149 41.4829 28.6352 39.7283C24.3662 37.5677 20.5325 34.638 17.3266 31.0863C14.0989 27.5448 11.5736 23.4238 9.87815 18.9421ZM20.1157 22.2888L22.6991 18.6577C23.4074 17.6632 23.8023 16.4796 23.8331 15.2591C23.8639 14.0385 23.5292 12.8365 22.8719 11.8075L20.8321 8.60972C19.997 7.30579 18.6968 6.36864 17.1958 5.98863C15.6947 5.60862 14.1052 5.81425 12.7502 6.56375C8.03751 9.17973 4.95318 14.5613 7.01205 20.0252C8.45043 23.8395 10.8989 28.5597 15.06 33.147C18.5184 36.9762 22.6534 40.1347 27.2576 42.4639C32.4768 45.0944 38.1654 42.6056 41.2628 38.1825C42.1492 36.9176 42.5196 35.3622 42.2983 33.8336C42.0769 32.305 41.2806 30.9184 40.0719 29.9569L37.086 27.5805C36.131 26.821 34.9708 26.364 33.7544 26.2682C32.5379 26.1724 31.3205 26.4421 30.2583 27.0428L26.3765 29.2377C25.0664 28.3589 23.8637 27.3298 22.7929 26.1713C21.7465 24.992 20.8486 23.6889 20.1193 22.2912" fill="#ED7C0E"/>
</svg>
