<svg width="49" height="49" viewBox="0 0 49 49" fill="none" xmlns="http://www.w3.org/2000/svg">
<path d="M32.6667 20.4167C32.6667 15.9046 29.0121 12.25 24.5 12.25C19.988 12.25 16.3334 15.9046 16.3334 20.4167C16.3334 24.9288 19.988 28.5833 24.5 28.5833C29.0121 28.5833 32.6667 24.9288 32.6667 20.4167ZM20.4167 20.4167C20.4167 18.1708 22.2542 16.3333 24.5 16.3333C26.7459 16.3333 28.5834 18.1708 28.5834 20.4167C28.5834 22.6625 26.7459 24.5 24.5 24.5C22.2542 24.5 20.4167 22.6625 20.4167 20.4167Z" fill="#ED7C0E"/>
<path d="M23.3159 44.5288C23.6629 44.7738 24.0917 44.9167 24.5 44.9167C24.9084 44.9167 25.3371 44.7942 25.6842 44.5288C26.2967 44.0797 40.8946 33.5651 40.8334 20.3963C40.8334 11.3926 33.5038 4.06299 24.5 4.06299C15.4963 4.06299 8.1667 11.3926 8.1667 20.3963C8.10545 33.5447 22.7034 44.0797 23.3159 44.5288ZM24.5 8.16674C31.2579 8.16674 36.75 13.6588 36.75 20.4167C36.7909 29.4817 27.7871 37.628 24.5 40.3026C21.2129 37.628 12.2092 29.5022 12.25 20.4167C12.25 13.6588 17.7421 8.16674 24.5 8.16674Z" fill="#ED7C0E"/>
</svg>
