<svg width="28" height="28" viewBox="0 0 28 28" fill="none" xmlns="http://www.w3.org/2000/svg">
<path d="M11.5033 20.9999C11.3433 20.9994 11.1852 20.966 11.0387 20.9017C10.8922 20.8375 10.7604 20.7439 10.6516 20.6266L4.98164 14.5949C4.76969 14.369 4.65615 14.0682 4.666 13.7586C4.67584 13.449 4.80827 13.156 5.03414 12.9441C5.26002 12.7321 5.56084 12.6186 5.87043 12.6284C6.18003 12.6383 6.47303 12.7707 6.68498 12.9966L11.4916 18.1182L21.3033 7.3849C21.4029 7.2609 21.5267 7.15858 21.6673 7.0842C21.8079 7.00983 21.9621 6.96497 22.1207 6.95239C22.2792 6.93981 22.4386 6.95977 22.5891 7.01104C22.7397 7.06231 22.8781 7.14382 22.996 7.25055C23.1139 7.35728 23.2087 7.48698 23.2746 7.6317C23.3406 7.77641 23.3762 7.93307 23.3794 8.09206C23.3826 8.25105 23.3532 8.40901 23.2931 8.55624C23.233 8.70347 23.1435 8.83687 23.03 8.94823L12.3666 20.6149C12.2589 20.7343 12.1276 20.8302 11.981 20.8964C11.8345 20.9627 11.6758 20.9979 11.515 20.9999H11.5033Z" fill="#ED7C0E"/>
</svg>
